<?xml version="1.0" encoding="UTF-8"?>
<svg version="1.1" xmlns="http://www.w3.org/2000/svg" width="225" height="225">
<path d="M0 0 C74.25 0 148.5 0 225 0 C225 74.25 225 148.5 225 225 C150.75 225 76.5 225 0 225 C0 150.75 0 76.5 0 0 Z " fill="#FEFEFD" transform="translate(0,0)"/>
<path d="M0 0 C8.41626763 6.0328998 14.24382327 13.53731714 16.96875 23.55859375 C17.55269925 27.60693419 17.47940183 31.60368318 17.4375 35.6875 C17.43298828 36.52345703 17.42847656 37.35941406 17.42382812 38.22070312 C17.41210548 40.27216649 17.39417203 42.32359273 17.375 44.375 C18.674375 44.354375 19.97375 44.33375 21.3125 44.3125 C22.66665633 44.29100546 24.02256083 44.30351801 25.375 44.375 C26.375 45.375 26.375 45.375 26.48852539 47.23266602 C26.48328857 48.02342529 26.47805176 48.81418457 26.47265625 49.62890625 C26.46943359 50.48291016 26.46621094 51.33691406 26.46289062 52.21679688 C26.45451172 53.11462891 26.44613281 54.01246094 26.4375 54.9375 C26.43298828 55.83919922 26.42847656 56.74089844 26.42382812 57.66992188 C26.41200244 59.90497589 26.39406638 62.13999602 26.375 64.375 C31.655 64.375 36.935 64.375 42.375 64.375 C43.035 62.725 43.695 61.075 44.375 59.375 C47.15573521 56.38036208 50.23936101 55.61956906 54.27734375 55.2421875 C58.12619155 55.48587619 60.29259529 57.09402051 63.375 59.375 C66.02430485 62.71542786 65.7375472 66.24196196 65.375 70.375 C63.68424911 74.09465196 61.80777677 76.20436318 58.375 78.375 C54.97364398 79.03867922 51.78494532 78.9819482 48.375 78.375 C45.55075712 76.18477082 43.95991397 74.54482793 42.375 71.375 C39.65279617 71.06169533 37.0427157 70.86235017 34.3125 70.75 C30.3834375 70.564375 30.3834375 70.564375 26.375 70.375 C26.375 76.315 26.375 82.255 26.375 88.375 C39.245 88.375 52.115 88.375 65.375 88.375 C66.035 86.725 66.695 85.075 67.375 83.375 C70.19322088 80.39573793 71.71681007 79.45876963 75.8125 78.9375 C80.74955247 79.54380469 83.97544587 80.74218685 87.25 84.5625 C88.72091979 88.23979948 89.20456497 91.51375215 88.375 95.375 C86.61892354 98.39284991 84.54563565 100.78968217 81.375 102.375 C76.20442493 103.01560222 72.56563457 103.27405059 68.3125 100.0625 C66.375 97.375 66.375 97.375 65.375 94.375 C52.505 94.375 39.635 94.375 26.375 94.375 C26.045 97.345 25.715 100.315 25.375 103.375 C24.385 106.345 23.395 109.315 22.375 112.375 C28.975 112.375 35.575 112.375 42.375 112.375 C43.035 110.725 43.695 109.075 44.375 107.375 C47.19322088 104.39573793 48.71681007 103.45876963 52.8125 102.9375 C57.77486261 103.54691295 61.00921451 104.73605741 64.25 108.625 C65.68658806 112.13665971 65.77859922 114.60807391 65.375 118.375 C63.68424911 122.09465196 61.80777677 124.20436318 58.375 126.375 C54.97364398 127.03867922 51.78494532 126.9819482 48.375 126.375 C45.55075712 124.18477082 43.95991397 122.54482793 42.375 119.375 C38.35515717 119.14131434 34.33706913 119.0001393 30.3125 118.875 C28.6119043 118.77445313 28.6119043 118.77445313 26.87695312 118.671875 C20.55029313 118.41818434 20.55029313 118.41818434 15.07470703 121.15625 C13.35427634 123.1545724 11.87754624 125.21276413 10.375 127.375 C9.715 127.705 9.055 128.035 8.375 128.375 C8.22638011 133.55268847 8.11765955 138.72912901 8.04541016 143.90844727 C8.01528612 145.66908399 7.97437704 147.42957122 7.92236328 149.18969727 C7.84934733 151.72449626 7.81550259 154.25730799 7.7890625 156.79296875 C7.75809479 157.57649216 7.72712708 158.36001556 7.69522095 159.1672821 C7.65592601 163.40038546 7.65592601 163.40038546 9.71551514 166.94790649 C11.20688643 168.16983912 12.78826307 169.27974952 14.375 170.375 C15.98132723 173.58765446 15.85431944 176.89021812 15.375 180.375 C13.35997111 184.12712276 11.92033858 186.01144095 8.375 188.375 C4.59811096 189.05843706 0.90313111 189.22607095 -2.51171875 187.32421875 C-5.32845831 185.01217344 -7.38423239 183.09476865 -7.8984375 179.421875 C-8.08829043 175.12827801 -8.0592668 172.27917036 -5.25 168.875 C-2.625 166.375 -2.625 166.375 -0.625 165.375 C-0.295 154.815 0.035 144.255 0.375 133.375 C-5.07 135.355 -5.07 135.355 -10.625 137.375 C-14.3125 137.625 -14.3125 137.625 -16.625 137.375 C-16.63408868 144.54717952 -16.59680006 151.71804643 -16.52734375 158.88989258 C-16.50918165 161.32928958 -16.5016156 163.76878953 -16.50488281 166.20825195 C-16.50773908 169.71646809 -16.47242891 173.2225483 -16.4296875 176.73046875 C-16.43878143 177.82022507 -16.44787537 178.90998138 -16.45724487 180.03276062 C-16.50912445 185.43037249 -16.50912445 185.43037249 -14.27105713 190.13589478 C-12.47687417 191.66655253 -12.47687417 191.66655253 -9.625 193.375 C-8.01634225 196.59231551 -8.15803867 199.8857612 -8.625 203.375 C-10.33073877 206.78647754 -11.66000427 208.75847495 -14.875 210.8125 C-18.66912325 211.58857066 -21.91689651 211.55859667 -25.625 210.375 C-29.745882 206.95554473 -31.46757891 204.94921093 -32 199.625 C-31.97558775 196.27441932 -31.38101354 194.52605468 -29.25 191.9375 C-26.625 189.375 -26.625 189.375 -24.625 188.375 C-24.295 171.545 -23.965 154.715 -23.625 137.375 C-26.925 137.045 -30.225 136.715 -33.625 136.375 C-37.75 134.8125 -37.75 134.8125 -40.625 133.375 C-40.63034168 137.84179215 -40.59662311 142.3061038 -40.52734375 146.7722168 C-40.50922253 148.29003074 -40.50160826 149.80800916 -40.50488281 151.32592773 C-40.50775166 153.51414239 -40.4723298 155.69897434 -40.4296875 157.88671875 C-40.41921387 159.20115967 -40.40874023 160.51560059 -40.39794922 161.86987305 C-39.34344122 166.65179705 -37.53681623 167.57382506 -33.625 170.375 C-32.02828811 173.56842379 -32.25081837 176.90045631 -32.625 180.375 C-34.24424923 184.01831077 -36.03351039 186.57925519 -39.625 188.375 C-44.20895095 189.08022322 -47.53397048 189.02497503 -51.5625 186.625 C-55.16464699 182.6953851 -56.13221808 179.8908339 -56.01953125 174.41015625 C-55.31147817 170.75772403 -53.24965368 168.93716192 -50.625 166.375 C-49.965 166.045 -49.305 165.715 -48.625 165.375 C-48.42634479 160.23403245 -48.28166774 155.09532436 -48.18554688 149.95141602 C-48.14546075 148.20427515 -48.09097257 146.45740026 -48.02148438 144.71118164 C-47.24898699 134.76289545 -47.24898699 134.76289545 -50.40625 125.69970703 C-52.40072796 123.98258616 -54.35628748 122.69004214 -56.625 121.375 C-56.955 120.715 -57.285 120.055 -57.625 119.375 C-61.6869557 119.20043661 -65.74794587 119.0940558 -69.8125 119 C-70.96298828 118.94972656 -72.11347656 118.89945312 -73.29882812 118.84765625 C-79.20781241 118.52745152 -79.20781241 118.52745152 -84.47119141 120.70214844 C-85.99298513 122.49312875 -85.99298513 122.49312875 -87.625 125.375 C-91.11197902 127.11848951 -94.82090063 126.95582725 -98.625 126.375 C-102.20123788 124.4612694 -104.32262236 122.28213292 -105.625 118.375 C-106.02609454 114.12339783 -105.88878256 111.8743027 -103.875 108.0625 C-100.69050196 104.25879401 -99.15360114 103.54484457 -94.25 103 C-89.9070782 103.44926777 -87.91826866 104.5412572 -84.625 107.375 C-83.965 109.025 -83.305 110.675 -82.625 112.375 C-76.025 112.375 -69.425 112.375 -62.625 112.375 C-63.285 110.333125 -63.945 108.29125 -64.625 106.1875 C-66.02816901 101.84644588 -66.625 99.01708037 -66.625 94.375 C-79.495 94.375 -92.365 94.375 -105.625 94.375 C-106.285 96.025 -106.945 97.675 -107.625 99.375 C-111.27498737 102.58256466 -114.78779487 102.89027721 -119.47265625 102.734375 C-122.71390775 102.193186 -124.40700098 100.7274232 -126.625 98.375 C-129.10091878 94.66112182 -129.16407468 91.67917439 -128.625 87.375 C-126.8664131 83.20992576 -124.77298495 81.16617532 -120.625 79.375 C-115.61926368 78.83867111 -112.61982001 79.26791777 -108.625 82.375 C-105.625 85.7887931 -105.625 85.7887931 -105.625 88.375 C-92.755 88.375 -79.885 88.375 -66.625 88.375 C-66.625 82.435 -66.625 76.495 -66.625 70.375 C-70.4921875 70.4678125 -70.4921875 70.4678125 -74.4375 70.5625 C-75.64950073 70.57253052 -75.64950073 70.57253052 -76.88598633 70.58276367 C-79.15531227 70.63660479 -79.15531227 70.63660479 -82.625 71.375 C-84.52253942 73.71761947 -84.52253942 73.71761947 -85.625 76.375 C-89.87082147 79.20554764 -93.63984837 79.14909187 -98.625 78.375 C-102.24759904 76.4912485 -104.31475631 74.30573106 -105.625 70.375 C-105.99445059 65.38741703 -105.80727193 62.32540654 -102.625 58.375 C-99.19413169 55.53228054 -96.0986168 54.78366982 -91.625 54.953125 C-87.930164 55.73250447 -86.17864554 57.63450235 -83.625 60.375 C-83.295 61.695 -82.965 63.015 -82.625 64.375 C-77.345 64.375 -72.065 64.375 -66.625 64.375 C-66.63660156 63.01503906 -66.64820313 61.65507813 -66.66015625 60.25390625 C-66.66953262 58.4817722 -66.67863298 56.70963667 -66.6875 54.9375 C-66.69587891 54.03966797 -66.70425781 53.14183594 -66.71289062 52.21679688 C-66.71611328 51.36279297 -66.71933594 50.50878906 -66.72265625 49.62890625 C-66.72789307 48.83814697 -66.73312988 48.0473877 -66.73852539 47.23266602 C-66.625 45.375 -66.625 45.375 -65.625 44.375 C-62.95441149 44.23384839 -60.30067762 44.33252893 -57.625 44.375 C-57.65980469 43.19164062 -57.69460937 42.00828125 -57.73046875 40.7890625 C-58.00153228 27.85330866 -57.19478475 17.71463159 -48.625 7.375 C-35.26278679 -6.55634452 -17.08266064 -10.49446729 0 0 Z " fill="#FEF9F6" transform="translate(132.625,9.625)"/>
<path d="M0 0 C0.33 0 0.66 0 1 0 C1 5.94 1 11.88 1 18 C3.64 18 6.28 18 9 18 C10 19 10 19 10.11352539 20.85766602 C10.10828857 21.64842529 10.10305176 22.43918457 10.09765625 23.25390625 C10.09443359 24.10791016 10.09121094 24.96191406 10.08789062 25.84179688 C10.07951172 26.73962891 10.07113281 27.63746094 10.0625 28.5625 C10.05798828 29.46419922 10.05347656 30.36589844 10.04882812 31.29492188 C10.03700244 33.52997589 10.01906638 35.76499602 10 38 C15.28 38 20.56 38 26 38 C26.66 36.35 27.32 34.7 28 33 C30.78073521 30.00536208 33.86436101 29.24456906 37.90234375 28.8671875 C41.75119155 29.11087619 43.91759529 30.71902051 47 33 C49.64930485 36.34042786 49.3625472 39.86696196 49 44 C47.30924911 47.71965196 45.43277677 49.82936318 42 52 C38.59864398 52.66367922 35.40994532 52.6069482 32 52 C29.17575712 49.80977082 27.58491397 48.16982793 26 45 C23.27779617 44.68669533 20.6677157 44.48735017 17.9375 44.375 C14.0084375 44.189375 14.0084375 44.189375 10 44 C10 49.94 10 55.88 10 62 C22.87 62 35.74 62 49 62 C49.66 60.35 50.32 58.7 51 57 C53.81822088 54.02073793 55.34181007 53.08376963 59.4375 52.5625 C64.37455247 53.16880469 67.60044587 54.36718685 70.875 58.1875 C72.34591979 61.86479948 72.82956497 65.13875215 72 69 C70.24392354 72.01784991 68.17063565 74.41468217 65 76 C59.82942493 76.64060222 56.19063457 76.89905059 51.9375 73.6875 C50 71 50 71 49 68 C36.13 68 23.26 68 10 68 C9.67 70.97 9.34 73.94 9 77 C8.01 79.97 7.02 82.94 6 86 C12.6 86 19.2 86 26 86 C26.66 84.35 27.32 82.7 28 81 C30.81822088 78.02073793 32.34181007 77.08376963 36.4375 76.5625 C41.39986261 77.17191295 44.63421451 78.36105741 47.875 82.25 C49.31158806 85.76165971 49.40359922 88.23307391 49 92 C47.30924911 95.71965196 45.43277677 97.82936318 42 100 C38.59864398 100.66367922 35.40994532 100.6069482 32 100 C29.17575712 97.80977082 27.58491397 96.16982793 26 93 C21.98015717 92.76631434 17.96206913 92.6251393 13.9375 92.5 C12.2369043 92.39945313 12.2369043 92.39945313 10.50195312 92.296875 C4.17529313 92.04318434 4.17529313 92.04318434 -1.30029297 94.78125 C-3.02072366 96.7795724 -4.49745376 98.83776413 -6 101 C-6.99 101.495 -6.99 101.495 -8 102 C-8.14861989 107.17768847 -8.25734045 112.35412901 -8.32958984 117.53344727 C-8.35971388 119.29408399 -8.40062296 121.05457122 -8.45263672 122.81469727 C-8.52565267 125.34949626 -8.55949741 127.88230799 -8.5859375 130.41796875 C-8.61690521 131.20149216 -8.64787292 131.98501556 -8.67977905 132.7922821 C-8.71907399 137.02538546 -8.71907399 137.02538546 -6.65948486 140.57290649 C-5.16811357 141.79483912 -3.58673693 142.90474952 -2 144 C-0.39367277 147.21265446 -0.52068056 150.51521812 -1 154 C-3.01502889 157.75212276 -4.45466142 159.63644095 -8 162 C-11.77688904 162.68343706 -15.47186889 162.85107095 -18.88671875 160.94921875 C-21.70345831 158.63717344 -23.75923239 156.71976865 -24.2734375 153.046875 C-24.46329043 148.75327801 -24.4342668 145.90417036 -21.625 142.5 C-19 140 -19 140 -17 139 C-16.67 128.44 -16.34 117.88 -16 107 C-19.63 108.32 -23.26 109.64 -27 111 C-30.6875 111.25 -30.6875 111.25 -33 111 C-33.00908868 118.17217952 -32.97180006 125.34304643 -32.90234375 132.51489258 C-32.88418165 134.95428958 -32.8766156 137.39378953 -32.87988281 139.83325195 C-32.88273908 143.34146809 -32.84742891 146.8475483 -32.8046875 150.35546875 C-32.81378143 151.44522507 -32.82287537 152.53498138 -32.83224487 153.65776062 C-32.88412445 159.05537249 -32.88412445 159.05537249 -30.64605713 163.76089478 C-28.85187417 165.29155253 -28.85187417 165.29155253 -26 167 C-24.39134225 170.21731551 -24.53303867 173.5107612 -25 177 C-26.70573877 180.41147754 -28.03500427 182.38347495 -31.25 184.4375 C-35.04412325 185.21357066 -38.29189651 185.18359667 -42 184 C-46.120882 180.58054473 -47.84257891 178.57421093 -48.375 173.25 C-48.35058775 169.89941932 -47.75601354 168.15105468 -45.625 165.5625 C-43 163 -43 163 -41 162 C-40.67 145.17 -40.34 128.34 -40 111 C-43.3 110.67 -46.6 110.34 -50 110 C-54.125 108.4375 -54.125 108.4375 -57 107 C-57.00534168 111.46679215 -56.97162311 115.9311038 -56.90234375 120.3972168 C-56.88422253 121.91503074 -56.87660826 123.43300916 -56.87988281 124.95092773 C-56.88275166 127.13914239 -56.8473298 129.32397434 -56.8046875 131.51171875 C-56.79421387 132.82615967 -56.78374023 134.14060059 -56.77294922 135.49487305 C-55.71844122 140.27679705 -53.91181623 141.19882506 -50 144 C-48.40328811 147.19342379 -48.62581837 150.52545631 -49 154 C-50.61924923 157.64331077 -52.40851039 160.20425519 -56 162 C-60.58395095 162.70522322 -63.90897048 162.64997503 -67.9375 160.25 C-71.53964699 156.3203851 -72.50721808 153.5158339 -72.39453125 148.03515625 C-71.68647817 144.38272403 -69.62465368 142.56216192 -67 140 C-66.34 139.67 -65.68 139.34 -65 139 C-64.80134479 133.85903245 -64.65666774 128.72032436 -64.56054688 123.57641602 C-64.52046075 121.82927515 -64.46597257 120.08240026 -64.39648438 118.33618164 C-63.62398699 108.38789545 -63.62398699 108.38789545 -66.78125 99.32470703 C-68.77572796 97.60758616 -70.73128748 96.31504214 -73 95 C-73.33 94.34 -73.66 93.68 -74 93 C-78.0619557 92.82543661 -82.12294587 92.7190558 -86.1875 92.625 C-87.33798828 92.57472656 -88.48847656 92.52445312 -89.67382812 92.47265625 C-95.58281241 92.15245152 -95.58281241 92.15245152 -100.84619141 94.32714844 C-102.36798513 96.11812875 -102.36798513 96.11812875 -104 99 C-107.48697902 100.74348951 -111.19590063 100.58082725 -115 100 C-118.57623788 98.0862694 -120.69762236 95.90713292 -122 92 C-122.40109454 87.74839783 -122.26378256 85.4993027 -120.25 81.6875 C-117.06550196 77.88379401 -115.52860114 77.16984457 -110.625 76.625 C-106.2820782 77.07426777 -104.29326866 78.1662572 -101 81 C-100.34 82.65 -99.68 84.3 -99 86 C-92.4 86 -85.8 86 -79 86 C-79.66 83.958125 -80.32 81.91625 -81 79.8125 C-82.40316901 75.47144588 -83 72.64208037 -83 68 C-95.87 68 -108.74 68 -122 68 C-122.66 69.65 -123.32 71.3 -124 73 C-127.64998737 76.20756466 -131.16279487 76.51527721 -135.84765625 76.359375 C-139.08890775 75.818186 -140.78200098 74.3524232 -143 72 C-145.47591878 68.28612182 -145.53907468 65.30417439 -145 61 C-143.2414131 56.83492576 -141.14798495 54.79117532 -137 53 C-131.99426368 52.46367111 -128.99482001 52.89291777 -125 56 C-122 59.4137931 -122 59.4137931 -122 62 C-109.13 62 -96.26 62 -83 62 C-83 56.06 -83 50.12 -83 44 C-86.8671875 44.0928125 -86.8671875 44.0928125 -90.8125 44.1875 C-92.02450073 44.19753052 -92.02450073 44.19753052 -93.26098633 44.20776367 C-95.53031227 44.26160479 -95.53031227 44.26160479 -99 45 C-100.89753942 47.34261947 -100.89753942 47.34261947 -102 50 C-106.24582147 52.83054764 -110.01484837 52.77409187 -115 52 C-118.62259904 50.1162485 -120.68975631 47.93073106 -122 44 C-122.36945059 39.01241703 -122.18227193 35.95040654 -119 32 C-115.56913169 29.15728054 -112.4736168 28.40866982 -108 28.578125 C-104.305164 29.35750447 -102.55364554 31.25950235 -100 34 C-99.505 35.98 -99.505 35.98 -99 38 C-93.72 38 -88.44 38 -83 38 C-83 31.73 -83 25.46 -83 19 C-78 18 -78 18 -74.6875 19.875 C-73.3571875 20.926875 -73.3571875 20.926875 -72 22 C-72 22.33 -72 22.66 -72 23 C-73.65 23 -75.3 23 -77 23 C-76.98358469 29.88323643 -76.92832963 36.76541576 -76.84741211 43.64819336 C-76.82436764 45.98438663 -76.80986859 48.3206818 -76.80444336 50.65698242 C-76.78013961 74.27819956 -76.78013961 74.27819956 -64.46875 93.83984375 C-53.96636139 103.02943378 -43.63899022 104.87045851 -30.15576172 104.1953125 C-20.0058361 103.27572694 -12.22780862 97.50152494 -5.3125 90.4375 C4.82737111 77.72908794 3.775874 63.12924336 3.8125 47.6875 C3.83567826 45.38604436 3.86105042 43.08460972 3.88867188 40.78320312 C3.95109117 35.1887931 3.98637182 29.59473062 4 24 C2.54279541 23.93631226 2.54279541 23.93631226 1.05615234 23.87133789 C-0.21276855 23.80164795 -1.48168945 23.73195801 -2.7890625 23.66015625 C-4.04928223 23.59707275 -5.30950195 23.53398926 -6.60791016 23.46899414 C-9.87993618 23.01660016 -11.14023378 22.76235804 -13.375 20.4375 C-14.179375 19.2309375 -14.179375 19.2309375 -15 18 C-11.37 18 -7.74 18 -4 18 C-4 12.72 -4 7.44 -4 2 C-2.02 2.99 -2.02 2.99 0 4 C0 2.68 0 1.36 0 0 Z " fill="#F49919" transform="translate(149,36)"/>
<path d="M0 0 C7.44647917 5.33774171 13.96861996 12.35107484 16.375 21.375 C16.65720907 24.46518928 16.57263682 27.2622201 16.375 30.375 C14.89 29.88 14.89 29.88 13.375 29.375 C13.045 34.325 12.715 39.275 12.375 44.375 C7.92 44.87 7.92 44.87 3.375 45.375 C6.97341637 48.97341637 9.27582597 48.90607274 14.0625 49.0625 C14.76439453 49.09666016 15.46628906 49.13082031 16.18945312 49.16601562 C17.91741387 49.24829947 19.64618072 49.3133324 21.375 49.375 C21.375 49.705 21.375 50.035 21.375 50.375 C-5.685 50.375 -32.745 50.375 -60.625 50.375 C-59.305 49.715 -57.985 49.055 -56.625 48.375 C-58.275 47.385 -59.925 46.395 -61.625 45.375 C-59.645 44.88 -59.645 44.88 -57.625 44.375 C-57.67720703 42.59996094 -57.67720703 42.59996094 -57.73046875 40.7890625 C-58.00153228 27.85330866 -57.19478475 17.71463159 -48.625 7.375 C-35.26278679 -6.55634452 -17.08266064 -10.49446729 0 0 Z " fill="#EC5322" transform="translate(132.625,9.625)"/>
<path d="M0 0 C0.33 0 0.66 0 1 0 C1 5.94 1 11.88 1 18 C3.64 18 6.28 18 9 18 C10 19 10 19 10.11352539 20.85766602 C10.10828857 21.64842529 10.10305176 22.43918457 10.09765625 23.25390625 C10.09443359 24.10791016 10.09121094 24.96191406 10.08789062 25.84179688 C10.07951172 26.73962891 10.07113281 27.63746094 10.0625 28.5625 C10.05798828 29.46419922 10.05347656 30.36589844 10.04882812 31.29492188 C10.03700244 33.52997589 10.01906638 35.76499602 10 38 C15.28 38 20.56 38 26 38 C26.66 36.35 27.32 34.7 28 33 C30.78073521 30.00536208 33.86436101 29.24456906 37.90234375 28.8671875 C41.75119155 29.11087619 43.91759529 30.71902051 47 33 C49.64930485 36.34042786 49.3625472 39.86696196 49 44 C47.30924911 47.71965196 45.43277677 49.82936318 42 52 C38.59864398 52.66367922 35.40994532 52.6069482 32 52 C29.17575712 49.80977082 27.58491397 48.16982793 26 45 C23.27779617 44.68669533 20.6677157 44.48735017 17.9375 44.375 C14.0084375 44.189375 14.0084375 44.189375 10 44 C10 49.94 10 55.88 10 62 C22.87 62 35.74 62 49 62 C49.66 60.35 50.32 58.7 51 57 C53.81822088 54.02073793 55.34181007 53.08376963 59.4375 52.5625 C64.37455247 53.16880469 67.60044587 54.36718685 70.875 58.1875 C72.34591979 61.86479948 72.82956497 65.13875215 72 69 C70.24392354 72.01784991 68.17063565 74.41468217 65 76 C59.82942493 76.64060222 56.19063457 76.89905059 51.9375 73.6875 C50 71 50 71 49 68 C36.13 68 23.26 68 10 68 C9.67 70.97 9.34 73.94 9 77 C8.34 78.32 7.68 79.64 7 81 C5.35 80.01 3.7 79.02 2 78 C2.16076523 77.27947952 2.32153046 76.55895905 2.48716736 75.81660461 C2.97624022 73.13049462 3.15601745 70.66017796 3.20532227 67.93432617 C3.22526749 66.95368698 3.24521271 65.97304779 3.26576233 64.96269226 C3.28247482 63.9166835 3.29918732 62.87067474 3.31640625 61.79296875 C3.33718735 60.71243729 3.35796844 59.63190582 3.37937927 58.51863098 C3.44464036 55.07498389 3.50365075 51.63126205 3.5625 48.1875 C3.60570751 45.84960172 3.64932251 43.51171093 3.69335938 41.17382812 C3.80029772 35.44929722 3.90210727 29.72469235 4 24 C2.54279541 23.93631226 2.54279541 23.93631226 1.05615234 23.87133789 C-0.21276855 23.80164795 -1.48168945 23.73195801 -2.7890625 23.66015625 C-4.04928223 23.59707275 -5.30950195 23.53398926 -6.60791016 23.46899414 C-9.87993618 23.01660016 -11.14023378 22.76235804 -13.375 20.4375 C-14.179375 19.2309375 -14.179375 19.2309375 -15 18 C-11.37 18 -7.74 18 -4 18 C-4 12.72 -4 7.44 -4 2 C-2.68 2.66 -1.36 3.32 0 4 C0 2.68 0 1.36 0 0 Z " fill="#EB4825" transform="translate(149,36)"/>
<path d="M0 0 C3.51732742 1.28517733 5.4770624 2.37247488 7.875 5.25 C9.31158806 8.76165971 9.40359922 11.23307391 9 15 C7.30924911 18.71965196 5.43277677 20.82936318 2 23 C-1.40135602 23.66367922 -4.59005468 23.6069482 -8 23 C-10.82424288 20.80977082 -12.41508603 19.16982793 -14 16 C-18.01984283 15.76631434 -22.03793087 15.6251393 -26.0625 15.5 C-27.7630957 15.39945313 -27.7630957 15.39945313 -29.49804688 15.296875 C-35.82470687 15.04318434 -35.82470687 15.04318434 -41.30029297 17.78125 C-43.02072366 19.7795724 -44.49745376 21.83776413 -46 24 C-46.99 24.495 -46.99 24.495 -48 25 C-48.14861989 30.17768847 -48.25734045 35.35412901 -48.32958984 40.53344727 C-48.35971388 42.29408399 -48.40062296 44.05457122 -48.45263672 45.81469727 C-48.52565267 48.34949626 -48.55949741 50.88230799 -48.5859375 53.41796875 C-48.61690521 54.20149216 -48.64787292 54.98501556 -48.67977905 55.7922821 C-48.71907399 60.02538546 -48.71907399 60.02538546 -46.65948486 63.57290649 C-45.16811357 64.79483912 -43.58673693 65.90474952 -42 67 C-40.39367277 70.21265446 -40.52068056 73.51521812 -41 77 C-43.01502889 80.75212276 -44.45466142 82.63644095 -48 85 C-51.77688904 85.68343706 -55.47186889 85.85107095 -58.88671875 83.94921875 C-61.70345831 81.63717344 -63.75923239 79.71976865 -64.2734375 76.046875 C-64.46329043 71.75327801 -64.4342668 68.90417036 -61.625 65.5 C-59 63 -59 63 -57 62 C-56.67 51.44 -56.34 40.88 -56 30 C-59.63 31.32 -63.26 32.64 -67 34 C-70.875 34.5625 -70.875 34.5625 -74 34 C-75.7168951 32.3851233 -77.3902057 30.72166137 -79 29 C-77.81664063 28.78085938 -76.63328125 28.56171875 -75.4140625 28.3359375 C-62.90589377 25.88353705 -52.11846634 22.50857443 -44 12 C-41.8171771 8.41842806 -39.85626666 4.76012989 -38 1 C-36.68 1.33 -35.36 1.66 -34 2 C-33.06576355 5.01031744 -32.95550089 5.86650268 -34 9 C-27.4 9 -20.8 9 -14 9 C-13.34 7.35 -12.68 5.7 -12 4 C-8.18171796 -0.03646958 -5.47446533 -0.67230276 0 0 Z " fill="#F18218" transform="translate(189,113)"/>
<path d="M0 0 C8.05079902 4.6733234 13.68796229 11.09624346 16.40625 20.015625 C17.45757715 24.47832749 17.50908149 28.76008268 17.40625 33.32421875 C17.39722656 34.09894531 17.38820312 34.87367187 17.37890625 35.671875 C17.35564388 37.55612718 17.3197864 39.44021707 17.28125 41.32421875 C13.65125 41.32421875 10.02125 41.32421875 6.28125 41.32421875 C6.26707031 39.97328125 6.25289062 38.62234375 6.23828125 37.23046875 C6.19135114 35.42835251 6.14310394 33.62627024 6.09375 31.82421875 C6.08794922 30.93734375 6.08214844 30.05046875 6.07617188 29.13671875 C5.86293105 22.69210712 4.42061165 18.32178652 0.28125 13.32421875 C-5.25343029 8.51145328 -10.93544092 8.66624022 -18.109375 8.87890625 C-22.93614414 9.47441673 -26.42071298 10.69078814 -29.71875 14.32421875 C-33.83637098 20.10229086 -34.35795678 24.76663796 -34.46875 31.76171875 C-34.49839844 32.68404297 -34.52804688 33.60636719 -34.55859375 34.55664062 C-34.62870985 36.81204198 -34.6760615 39.0681316 -34.71875 41.32421875 C-38.34875 41.32421875 -41.97875 41.32421875 -45.71875 41.32421875 C-46.48739089 20.33605209 -46.48739089 20.33605209 -41.71875 13.32421875 C-41.29464844 12.63328125 -40.87054688 11.94234375 -40.43359375 11.23046875 C-31.44974582 -2.18274153 -14.69443134 -6.79855996 0 0 Z " fill="#FEF9F7" transform="translate(126.71875,12.67578125)"/>
<path d="M0 0 C3.95397245 0.43933027 6.73348973 1.76010725 10 4 C10 4.33 10 4.66 10 5 C8.35 5.33 6.7 5.66 5 6 C4.67 20.52 4.34 35.04 4 50 C2.68 48.35 1.36 46.7 0 45 C-0.33 44.67 -0.66 44.34 -1 44 C-1.08631874 42.65732587 -1.10706473 41.31025678 -1.09765625 39.96484375 C-1.09443359 39.15595703 -1.09121094 38.34707031 -1.08789062 37.51367188 C-1.07532227 36.2384668 -1.07532227 36.2384668 -1.0625 34.9375 C-1.05798828 34.08349609 -1.05347656 33.22949219 -1.04882812 32.34960938 C-1.03700373 30.23304337 -1.01906769 28.11651315 -1 26 C-3.60760846 26.0330077 -6.20662846 26.1001148 -8.8125 26.1875 C-9.91948242 26.19620117 -9.91948242 26.19620117 -11.04882812 26.20507812 C-13.49564662 26.25316515 -13.49564662 26.25316515 -17 27 C-18.89753942 29.34261947 -18.89753942 29.34261947 -20 32 C-24.24582147 34.83054764 -28.01484837 34.77409187 -33 34 C-36.62259904 32.1162485 -38.68975631 29.93073106 -40 26 C-40.36945059 21.01241703 -40.18227193 17.95040654 -37 14 C-33.56913169 11.15728054 -30.4736168 10.40866982 -26 10.578125 C-22.305164 11.35750447 -20.55364554 13.25950235 -18 16 C-17.67 17.32 -17.34 18.64 -17 20 C-11.72 20 -6.44 20 -1 20 C-1.01160156 18.64003906 -1.02320313 17.28007813 -1.03515625 15.87890625 C-1.04453262 14.1067722 -1.05363298 12.33463667 -1.0625 10.5625 C-1.07087891 9.66466797 -1.07925781 8.76683594 -1.08789062 7.84179688 C-1.09111328 6.98779297 -1.09433594 6.13378906 -1.09765625 5.25390625 C-1.10289307 4.46314697 -1.10812988 3.6723877 -1.11352539 2.85766602 C-1 1 -1 1 0 0 Z " fill="#F18317" transform="translate(67,54)"/>
<path d="M0 0 C3.60764618 1.92526274 6.16881261 4.33762523 8 8 C8.08342159 9.44848582 8.10732861 10.90070869 8.09765625 12.3515625 C8.09515869 13.11807129 8.09266113 13.88458008 8.09008789 14.67431641 C8.08098389 15.64804199 8.07187988 16.62176758 8.0625 17.625 C8.041875 20.71875 8.02125 23.8125 8 27 C-1.57 27 -11.14 27 -21 27 C-21.12375 24.009375 -21.2475 21.01875 -21.375 17.9375 C-21.42962402 17.00929443 -21.48424805 16.08108887 -21.54052734 15.12475586 C-21.63439725 10.40148463 -21.19476439 7.62034212 -18.1015625 3.94140625 C-13.04028889 -1.29288264 -6.96600605 -0.9028474 0 0 Z " fill="#FEFDFD" transform="translate(119,27)"/>
<path d="M0 0 C0.33 0 0.66 0 1 0 C1.01458252 0.95890137 1.02916504 1.91780273 1.04418945 2.90576172 C1.10209507 6.4582274 1.17932671 10.01005398 1.26245117 13.56201172 C1.2957373 15.10031779 1.32375778 16.63874707 1.34643555 18.17724609 C1.37991558 20.38692818 1.4322231 22.59547735 1.48828125 24.8046875 C1.49467117 25.49432587 1.5010611 26.18396423 1.50764465 26.89450073 C1.54025714 29.04685389 1.54025714 29.04685389 2 32 C2.99 32.66 3.98 33.32 5 34 C5.33 22.78 5.66 11.56 6 0 C6.33 0 6.66 0 7 0 C6.99880661 0.94174324 6.99880661 0.94174324 6.99758911 1.9025116 C6.9951503 8.440472 7.03434189 14.97724515 7.09765625 21.51489258 C7.11581835 23.95428958 7.1233844 26.39378953 7.12011719 28.83325195 C7.11726092 32.34146809 7.15257109 35.8475483 7.1953125 39.35546875 C7.18621857 40.44522507 7.17712463 41.53498138 7.16775513 42.65776062 C7.11587555 48.05537249 7.11587555 48.05537249 9.35394287 52.76089478 C11.14812583 54.29155253 11.14812583 54.29155253 14 56 C15.60865775 59.21731551 15.46696133 62.5107612 15 66 C13.29426123 69.41147754 11.96499573 71.38347495 8.75 73.4375 C4.95587675 74.21357066 1.70810349 74.18359667 -2 73 C-6.120882 69.58054473 -7.84257891 67.57421093 -8.375 62.25 C-8.35058775 58.89941932 -7.75601354 57.15105468 -5.625 54.5625 C-3 52 -3 52 -1 51 C-0.67 34.17 -0.34 17.34 0 0 Z " fill="#F7B439" transform="translate(109,147)"/>
<path d="M0 0 C0.33 0 0.66 0 1 0 C1.03738281 1.13179687 1.07476562 2.26359375 1.11328125 3.4296875 C1.17893082 4.91149205 1.24537851 6.39326139 1.3125 7.875 C1.33505859 8.62136719 1.35761719 9.36773437 1.38085938 10.13671875 C1.47811945 12.099604 1.73042294 14.05328322 2 16 C2.99 16.66 3.98 17.32 5 18 C5.33 13.38 5.66 8.76 6 4 C6.33 4 6.66 4 7 4 C6.99887207 4.94319092 6.99774414 5.88638184 6.99658203 6.8581543 C7.00653235 10.37213058 7.04315467 13.88375734 7.09765625 17.3972168 C7.11577747 18.91503074 7.12339174 20.43300916 7.12011719 21.95092773 C7.11724834 24.13914239 7.1526702 26.32397434 7.1953125 28.51171875 C7.20578613 29.82615967 7.21625977 31.14060059 7.22705078 32.49487305 C8.28155878 37.27679705 10.08818377 38.19882506 14 41 C15.59671189 44.19342379 15.37418163 47.52545631 15 51 C13.38075077 54.64331077 11.59148961 57.20425519 8 59 C3.41604905 59.70522322 0.09102952 59.64997503 -3.9375 57.25 C-7.53964699 53.3203851 -8.50721808 50.5158339 -8.39453125 45.03515625 C-7.68647817 41.38272403 -5.62465368 39.56216192 -3 37 C-2.01 36.505 -2.01 36.505 -1 36 C-0.67 24.12 -0.34 12.24 0 0 Z " fill="#F7B42E" transform="translate(85,139)"/>
<path d="M0 0 C3.4792124 1.27125068 5.46485319 2.37566205 7.875 5.1875 C9.34591979 8.86479948 9.82956497 12.13875215 9 16 C7.24392354 19.01784991 5.17063565 21.41468217 2 23 C-3.13501648 23.63619673 -6.8016356 23.88043099 -11.0625 20.75 C-13 18 -13 18 -14 14 C-22.25 14 -30.5 14 -39 14 C-39 13.67 -39 13.34 -39 13 C-36.36 12.67 -33.72 12.34 -31 12 C-32.58403524 10.41596476 -34.2771638 10.78025065 -36.47265625 10.68359375 C-37.82133789 10.62075195 -37.82133789 10.62075195 -39.19726562 10.55664062 C-40.14279297 10.51732422 -41.08832031 10.47800781 -42.0625 10.4375 C-43.01189453 10.39431641 -43.96128906 10.35113281 -44.93945312 10.30664062 C-47.29281353 10.20020724 -49.64628354 10.09818992 -52 10 C-52 9.67 -52 9.34 -52 9 C-39.46 9 -26.92 9 -14 9 C-13.34 7.35 -12.68 5.7 -12 4 C-8.18171796 -0.03646958 -5.47446533 -0.67230276 0 0 Z " fill="#EB4722" transform="translate(212,89)"/>
<path d="M0 0 C0.33 0 0.66 0 1 0 C0.99887207 1.06436279 0.99774414 2.12872559 0.99658203 3.2253418 C1.00026175 7.18616635 1.04312895 11.14577712 1.09765625 15.10620117 C1.11578975 16.81803556 1.12338953 18.53001605 1.12011719 20.24194336 C1.11725216 22.70801213 1.15264101 25.17106824 1.1953125 27.63671875 C1.18621857 28.39836838 1.17712463 29.16001801 1.16775513 29.94474792 C1.2478423 32.89311429 1.36909165 35.27331633 3.35394287 37.55947876 C4.84478302 38.7805709 6.41972864 39.89708894 8 41 C9.60632723 44.21265446 9.47931944 47.51521812 9 51 C6.98497111 54.75212276 5.54533858 56.63644095 2 59 C-1.77688904 59.68343706 -5.47186889 59.85107095 -8.88671875 57.94921875 C-11.70345831 55.63717344 -13.75923239 53.71976865 -14.2734375 50.046875 C-14.46329043 45.75327801 -14.4342668 42.90417036 -11.625 39.5 C-9 37 -9 37 -7 36 C-6.67 25.44 -6.34 14.88 -6 4 C-5.67 4 -5.34 4 -5 4 C-4.98541748 4.71655762 -4.97083496 5.43311523 -4.95581055 6.17138672 C-4.88151 9.40647983 -4.78479139 12.64052019 -4.6875 15.875 C-4.66494141 17.00292969 -4.64238281 18.13085938 -4.61914062 19.29296875 C-4.58369141 20.36933594 -4.54824219 21.44570312 -4.51171875 22.5546875 C-4.48553467 23.54968262 -4.45935059 24.54467773 -4.43237305 25.56982422 C-4.21834839 26.77276123 -4.21834839 26.77276123 -4 28 C-3.01 28.66 -2.02 29.32 -1 30 C-0.67 20.1 -0.34 10.2 0 0 Z " fill="#F49E2D" transform="translate(139,139)"/>
<path d="M0 0 C3.65409572 1.6609526 5.94545919 3.53972074 8 7 C8 7.99 8 8.98 8 10 C8.78375 9.938125 9.5675 9.87625 10.375 9.8125 C11.24125 9.874375 12.1075 9.93625 13 10 C13.99 11.485 13.99 11.485 15 13 C17.47491114 13.33814748 19.71351688 13.48872339 22.1953125 13.51171875 C22.90275604 13.52966995 23.61019958 13.54762115 24.33908081 13.56611633 C26.60099303 13.62034442 28.86269284 13.65415316 31.125 13.6875 C32.65758173 13.72066226 34.19013538 13.7551509 35.72265625 13.79101562 C39.48161779 13.87607727 43.240515 13.94282753 47 14 C47 14.33 47 14.66 47 15 C34.13 15 21.26 15 8 15 C7.01 17.475 7.01 17.475 6 20 C2.35001263 23.20756466 -1.16279487 23.51527721 -5.84765625 23.359375 C-9.08890775 22.818186 -10.78200098 21.3524232 -13 19 C-15.47591878 15.28612182 -15.53907468 12.30417439 -15 8 C-12.09315204 1.1153601 -7.21517187 -0.77305413 0 0 Z " fill="#F6AC1F" transform="translate(19,89)"/>
<path d="M0 0 C2.6875 2.1875 2.6875 2.1875 4.6875 5.1875 C4.6875 6.1775 4.6875 7.1675 4.6875 8.1875 C6.110625 8.0946875 6.110625 8.0946875 7.5625 8 C8.59375 8.061875 9.625 8.12375 10.6875 8.1875 C11.6775 9.6725 11.6775 9.6725 12.6875 11.1875 C15.46012255 11.57144667 18.03073528 11.79092248 20.8125 11.875 C21.56660156 11.90916016 22.32070312 11.94332031 23.09765625 11.97851562 C24.96041201 12.06104278 26.82393326 12.12594711 28.6875 12.1875 C28.6875 12.5175 28.6875 12.8475 28.6875 13.1875 C27.63622925 13.18580811 27.63622925 13.18580811 26.5637207 13.18408203 C23.37484456 13.19622008 20.18834673 13.25389742 17 13.3125 C15.89720703 13.30992187 14.79441406 13.30734375 13.65820312 13.3046875 C7.92109382 13.25932958 7.92109382 13.25932958 2.87255859 15.54589844 C1.3555029 17.33774208 1.3555029 17.33774208 -0.3125 20.1875 C-3.79947902 21.93098951 -7.50840063 21.76832725 -11.3125 21.1875 C-14.88873788 19.2737694 -17.01012236 17.09463292 -18.3125 13.1875 C-18.71359454 8.93589783 -18.57628256 6.6868027 -16.5625 2.875 C-11.92701368 -2.66183088 -6.48637514 -3.54914866 0 0 Z " fill="#F6AC1C" transform="translate(45.3125,114.8125)"/>
<path d="M0 0 C8.49846715 5.22090132 16.04044982 12.94270246 18.6640625 22.78125 C18.94627157 25.87143928 18.86169932 28.6684701 18.6640625 31.78125 C17.6740625 31.45125 16.6840625 31.12125 15.6640625 30.78125 C15.3340625 35.73125 15.0040625 40.68125 14.6640625 45.78125 C14.3340625 45.78125 14.0040625 45.78125 13.6640625 45.78125 C13.60798828 44.11449219 13.60798828 44.11449219 13.55078125 42.4140625 C13.02506624 29.5064521 11.97383831 19.53054313 2.6640625 9.78125 C-4.70819661 3.82070008 -11.85460203 2.22688565 -21.13671875 2.41015625 C-25.07270743 2.86671171 -28.07054158 4.0257141 -31.53125 5.90625 C-33.3359375 6.78125 -33.3359375 6.78125 -36.3359375 6.78125 C-38.0234375 4.78125 -38.0234375 4.78125 -39.3359375 2.78125 C-38.13303739 1.98135196 -36.92327455 1.19177176 -35.7109375 0.40625 C-34.70160156 -0.25503906 -34.70160156 -0.25503906 -33.671875 -0.9296875 C-23.21567449 -6.69983159 -10.3414481 -5.39553814 0 0 Z " fill="#E93A23" transform="translate(130.3359375,8.21875)"/>
<path d="M0 0 C4.44459805 2.53977032 8.37535544 5.37535544 12 9 C12 9.99 12 10.98 12 12 C13.65 12.66 15.3 13.32 17 14 C14.375 19.75 14.375 19.75 11 22 C6.93080822 22.66535838 2.77456411 22.92277334 -0.953125 20.984375 C-3.59681123 18.8540259 -4.92189083 17.23432752 -6 14 C-6.37066773 8.99598565 -6.09881835 6.01698676 -3 2 C-2.01 1.34 -1.02 0.68 0 0 Z " fill="#F3961D" transform="translate(33,66)"/>
<path d="M0 0 C3.12964569 0.2627501 3.94399571 0.64269657 6.5 2.6875 C8.4181969 6.52389381 8.73168796 9.47604022 8 13.6875 C6.84367254 16.05043002 5.85016245 17.83733755 4 19.6875 C0.99942298 20.03182851 -1.1025152 20.27262314 -4 19.6875 C-7.03978125 16.57172422 -7.88660381 14.48127332 -8.5 10.1875 C-7.70423551 4.61714855 -6.04971745 0.40632431 0 0 Z " fill="#EE6321" transform="translate(141,88.3125)"/>
<path d="M0 0 C3.96545673 0.63730555 5.10063397 1.4248675 7.5 4.5625 C9.24933583 8.06117167 8.33925509 11.84202272 7.5 15.5625 C5.875 18.125 5.875 18.125 3.5 19.5625 C0 20.125 0 20.125 -3.5 19.5625 C-6.20051329 17.41593816 -7.27996278 15.81693901 -7.87890625 12.40234375 C-8.08242564 8.46982391 -7.74550892 6.04369749 -5.9375 2.5 C-3.5 0.5625 -3.5 0.5625 0 0 Z " fill="#EE6322" transform="translate(126.5,63.4375)"/>
<path d="M0 0 C3.96545673 0.63730555 5.10063397 1.4248675 7.5 4.5625 C9.24933583 8.06117167 8.33925509 11.84202272 7.5 15.5625 C5.875 18.125 5.875 18.125 3.5 19.5625 C0 20.125 0 20.125 -3.5 19.5625 C-6.20051329 17.41593816 -7.27996278 15.81693901 -7.87890625 12.40234375 C-8.08242564 8.46982391 -7.74550892 6.04369749 -5.9375 2.5 C-3.5 0.5625 -3.5 0.5625 0 0 Z " fill="#F07C1F" transform="translate(126.5,113.4375)"/>
<path d="M0 0 C3.4375 0.6875 3.4375 0.6875 5.875 2.625 C7.98807951 6.76663584 8.23761076 10.12604384 7.4375 14.6875 C5.875 17.75 5.875 17.75 3.4375 19.6875 C-0.0625 20.25 -0.0625 20.25 -3.5625 19.6875 C-5.92747439 17.82041495 -7.22280715 16.36688569 -8.5625 13.6875 C-9.04455722 9.50967079 -8.97250905 6.66287315 -6.5 3.25 C-3.5625 0.6875 -3.5625 0.6875 0 0 Z " fill="#F2881A" transform="translate(98.5625,113.3125)"/>
<path d="M0 0 C3.55484581 0.68071515 4.714546 1.76322459 6.9375 4.5625 C8.4922669 7.67203379 8.22394437 10.12516761 7.9375 13.5625 C6.4375 17 6.4375 17 3.9375 19.5625 C0.93852563 20.29866675 -0.89526415 20.01496226 -4.0625 19.5625 C-6.73681489 17.75086733 -7.02170359 16.68488923 -8.0625 13.5625 C-8.74363523 6.52410267 -8.74363523 6.52410267 -5.9375 2.5625 C-3.0625 0.5625 -3.0625 0.5625 0 0 Z " fill="#F1851E" transform="translate(84.0625,88.4375)"/>
<path d="M0 0 C2.56073196 2.10111341 3.75849312 3.63877939 4.34375 6.9375 C4.54848994 11.44177874 3.78168361 14.32817764 1 18 C0 19 0 19 -3.3125 19.3125 C-7 19 -7 19 -9.375 17.5625 C-11.72586605 13.85536508 -12.21767347 10.36124346 -12 6 C-9.35868215 -0.03729794 -6.41517593 -0.66363889 0 0 Z " fill="#EF6E20" transform="translate(102,64)"/>
<path d="M0 0 C3.51732742 1.28517733 5.4770624 2.37247488 7.875 5.25 C9.31158806 8.76165971 9.40359922 11.23307391 9 15 C7.3529886 18.62342508 5.5672657 21.16816086 2 23 C-0.72002684 23.24015592 -3.25907443 23.13704628 -6 23 C-4.68 22.34 -3.36 21.68 -2 21 C-2.33 20.01 -2.66 19.02 -3 18 C-1.35 17.34 0.3 16.68 2 16 C2.16677282 12.58343976 2.16677282 12.58343976 2 9 C0.04366025 6.58878141 0.04366025 6.58878141 -3.625 6.875 C-5.295625 6.936875 -5.295625 6.936875 -7 7 C-7.33 9.64 -7.66 12.28 -8 15 C-12.875 10.375 -12.875 10.375 -14 7 C-10.0390252 1.20000119 -7.0379886 -0.59643971 0 0 Z " fill="#EC5823" transform="translate(189,113)"/>
<path d="M0 0 C1.875 1.0625 1.875 1.0625 3 3 C2.6875 6.6875 2.6875 6.6875 2 10 C0.35 10.66 -1.3 11.32 -3 12 C-2.34 13.32 -1.68 14.64 -1 16 C-4.1875 16.8125 -4.1875 16.8125 -8 17 C-11.7648044 14.13547492 -12.84263016 12.62947937 -14 8 C-17.63 8 -21.26 8 -25 8 C-25.33 7.01 -25.66 6.02 -26 5 C-28.64 4.67 -31.28 4.34 -34 4 C-34 3.67 -34 3.34 -34 3 C-30.58378212 2.85460047 -27.16836009 2.76590275 -23.75 2.6875 C-22.78191406 2.64560547 -21.81382812 2.60371094 -20.81640625 2.56054688 C-13.5980051 2.43609168 -13.5980051 2.43609168 -10.328125 5.51953125 C-9.67070312 6.74736328 -9.67070312 6.74736328 -9 8 C-8.71125 6.865625 -8.4225 5.73125 -8.125 4.5625 C-7.75375 3.386875 -7.3825 2.21125 -7 1 C-4.45132831 -0.27433584 -2.82594567 -0.27570202 0 0 Z " fill="#EE611F" transform="translate(189,119)"/>
<path d="M0 0 C0.33 0 0.66 0 1 0 C1 2.97 1 5.94 1 9 C2.32 9.66 3.64 10.32 5 11 C5 11.99 5 12.98 5 14 C5.78375 14.28875 6.5675 14.5775 7.375 14.875 C10 16 10 16 12 18 C14.56916657 18.30599063 17.04758384 18.51087087 19.625 18.625 C20.68460938 18.68300781 20.68460938 18.68300781 21.765625 18.7421875 C23.50998524 18.83647724 25.25495691 18.91932891 27 19 C27 19.33 27 19.66 27 20 C-0.06 20 -27.12 20 -55 20 C-55 19.67 -55 19.34 -55 19 C-42.13 18.67 -29.26 18.34 -16 18 C-16.66 17.01 -17.32 16.02 -18 15 C-17 14 -17 14 -13.18359375 13.90234375 C-11.60153318 13.90901911 -10.01948841 13.92098125 -8.4375 13.9375 C-7.63119141 13.94201172 -6.82488281 13.94652344 -5.99414062 13.95117188 C-3.99606244 13.96299482 -1.99802217 13.98093086 0 14 C0 9.38 0 4.76 0 0 Z " fill="#EC5217" transform="translate(127,40)"/>
<path d="M0 0 C3.5 0.625 3.5 0.625 5.9375 2.5 C8.14585224 6.91670447 8.29291109 10.77761569 7.5 15.625 C5.9375 18.25 5.9375 18.25 3.5 19.625 C0 20.1875 0 20.1875 -3.5 19.625 C-6.20051329 17.47843816 -7.27996278 15.87943901 -7.87890625 12.46484375 C-8.08242564 8.53232391 -7.74550892 6.10619749 -5.9375 2.5625 C-3.5 0.625 -3.5 0.625 0 0 Z " fill="#F0781F" transform="translate(112.5,88.375)"/>
<path d="M0 0 C0.61584961 0.4844458 1.23169922 0.9688916 1.86621094 1.46801758 C5.14378349 3.82119466 8.02617384 3.66884782 12 4 C12 4.33 12 4.66 12 5 C9.36 5 6.72 5 4 5 C4.33 10.94 4.66 16.88 5 23 C6.42054688 23.03738281 7.84109375 23.07476562 9.3046875 23.11328125 C11.16148542 23.17892562 13.01825507 23.24537348 14.875 23.3125 C15.81214844 23.33505859 16.74929687 23.35761719 17.71484375 23.38085938 C19.05869141 23.4340332 19.05869141 23.4340332 20.4296875 23.48828125 C21.25710449 23.51446533 22.08452148 23.54064941 22.93701172 23.56762695 C25 24 25 24 27 27 C29.77262255 27.38394667 32.34323528 27.60342248 35.125 27.6875 C35.87910156 27.72166016 36.63320312 27.75582031 37.41015625 27.79101562 C39.27291201 27.87354278 41.13643326 27.93844711 43 28 C43 28.33 43 28.66 43 29 C30.13 29 17.26 29 4 29 C3.67 29.99 3.34 30.98 3 32 C-0.2381498 26.93159162 -1.17836637 23.56732738 -0.87890625 17.578125 C-0.83056641 16.55332031 -0.78222656 15.52851562 -0.73242188 14.47265625 C-0.67634766 13.40917969 -0.62027344 12.34570312 -0.5625 11.25 C-0.51029297 10.17105469 -0.45808594 9.09210938 -0.40429688 7.98046875 C-0.27480531 5.32000578 -0.13984639 2.65993548 0 0 Z " fill="#EC5929" transform="translate(155,75)"/>
<path d="M0 0 C0.33 0.66 0.66 1.32 1 2 C2.32 2.66 3.64 3.32 5 4 C5 8.62 5 13.24 5 18 C7.2275 17.896875 9.455 17.79375 11.75 17.6875 C15.546875 17.51171875 15.546875 17.51171875 19 18 C21.453125 20.51953125 21.453125 20.51953125 23 23 C19.62529496 23.11689626 16.2511157 23.18747934 12.875 23.25 C11.92367187 23.28351562 10.97234375 23.31703125 9.9921875 23.3515625 C3.9709995 23.43519011 0.62285737 22.95355479 -4 19 C-2.68 18.67 -1.36 18.34 0 18 C0 12.06 0 6.12 0 0 Z " fill="#EF6D25" transform="translate(75,36)"/>
<path d="M0 0 C2.64233769 2.19257809 4.46669809 3.93339618 6 7 C6.37185414 11.92706735 6.19070398 15.10025069 3 19 C0 19 0 19 -1.6875 17.5 C-2.120625 17.005 -2.55375 16.51 -3 16 C-2.34 15.01 -1.68 14.02 -1 13 C-0.58320703 10.45769153 -0.58320703 10.45769153 -1 8 C-3.75047381 5.70792787 -3.75047381 5.70792787 -6.5 6.25 C-9.21362946 6.93137292 -9.21362946 6.93137292 -12 9 C-12.99 7.02 -13.98 5.04 -15 3 C-10.12565388 -0.86586071 -6.06602564 -1.7618671 0 0 Z " fill="#E93B26" transform="translate(192,66)"/>
<path d="M0 0 C3.4792124 1.27125068 5.46485319 2.37566205 7.875 5.1875 C9.45309967 9.13274917 9.40510805 11.74636551 9 16 C7.5 18.5 7.5 18.5 6 20 C2.125 18.25 2.125 18.25 1 16 C1.28241883 13.6599583 1.61250787 11.32495277 2 9 C-1.4352048 6.70986347 -2.985331 6.82157027 -7 7 C-7 7.66 -7 8.32 -7 9 C-7.66 9 -8.32 9 -9 9 C-9 8.01 -9 7.02 -9 6 C-10.98 6.99 -10.98 6.99 -13 8 C-12.68151851 5.02750614 -11.96374181 3.96160897 -9.875 1.75 C-6.22505896 -0.47170324 -4.21712866 -0.51789299 0 0 Z " fill="#E93D28" transform="translate(212,89)"/>
<path d="M0 0 C1.32 0.33 2.64 0.66 4 1 C4.98120464 4.05263664 4.98120464 5.94736336 4 9 C6.01822917 8.90234375 8.03645833 8.8046875 10.0546875 8.70703125 C10.69664062 8.80371094 11.33859375 8.90039062 12 9 C12.99 10.485 12.99 10.485 14 12 C16.42521494 12.58189266 16.42521494 12.58189266 19.125 12.6875 C20.49011719 12.78611328 20.49011719 12.78611328 21.8828125 12.88671875 C22.58148438 12.92410156 23.28015625 12.96148437 24 13 C24 13.33 24 13.66 24 14 C19.89587259 14.16764279 15.79169203 14.3339474 11.6875 14.5 C9.93663086 14.57154297 9.93663086 14.57154297 8.15039062 14.64453125 C7.03212891 14.68964844 5.91386719 14.73476562 4.76171875 14.78125 C3.2142395 14.8440918 3.2142395 14.8440918 1.63549805 14.90820312 C-6.60924916 15.19537542 -6.60924916 15.19537542 -9 14 C-8.60167969 13.49210937 -8.20335937 12.98421875 -7.79296875 12.4609375 C-4.71433825 8.46096502 -2.08404386 4.63120857 0 0 Z " fill="#EF6E27" transform="translate(151,114)"/>
<path d="M0 0 C2.875 2.5 2.875 2.5 5 5 C4.07380859 5.14695312 4.07380859 5.14695312 3.12890625 5.296875 C-2.37908152 6.26936599 -7.07853001 7.70329805 -12.08984375 10.1953125 C-14 11 -14 11 -17 11 C-18.6875 9 -18.6875 9 -20 7 C-7.73978238 -1.15273355 -7.73978238 -1.15273355 0 0 Z " fill="#EB4B28" transform="translate(111,4)"/>
<path d="M0 0 C6.15384615 3.07692308 6.15384615 3.07692308 8 8 C9.12534105 9.35618499 9.12534105 9.35618499 12.0625 9.0625 C13.031875 9.041875 14.00125 9.02125 15 9 C15.33 11.31 15.66 13.62 16 16 C8.0470297 16.62376238 8.0470297 16.62376238 4.0625 14.25 C-0.27314028 9.52021061 -0.20845543 6.25366303 0 0 Z " fill="#F8BA1D" transform="translate(77,182)"/>
<path d="M0 0 C0.33 0 0.66 0 1 0 C1.01458252 1.22630127 1.02916504 2.45260254 1.04418945 3.71606445 C1.10212083 8.26177266 1.17935381 12.80698281 1.26245117 17.35229492 C1.29572486 19.32031171 1.32374915 21.28842449 1.34643555 23.2565918 C1.37993678 26.08423812 1.43224963 28.91100282 1.48828125 31.73828125 C1.49467117 32.61962234 1.5010611 33.50096344 1.50764465 34.40901184 C1.52743881 35.22963608 1.54723297 36.05026031 1.56762695 36.89575195 C1.57873001 37.61745071 1.58983307 38.33914948 1.60127258 39.0827179 C2.10931512 41.52564211 3.20144597 42.32939309 5 44 C6.4385133 48.86881425 5.61297605 52.25595279 4 57 C2.02 56.01 0.04 55.02 -2 54 C-1.83923477 53.27947952 -1.67846954 52.55895905 -1.51283264 51.81660461 C-1.02375978 49.13049462 -0.84398255 46.66017796 -0.79467773 43.93432617 C-0.77473251 42.95368698 -0.75478729 41.97304779 -0.73423767 40.96269226 C-0.71752518 39.9166835 -0.70081268 38.87067474 -0.68359375 37.79296875 C-0.66281265 36.71243729 -0.64203156 35.63190582 -0.62062073 34.51863098 C-0.55535964 31.07498389 -0.49634925 27.63126205 -0.4375 24.1875 C-0.39429249 21.84960172 -0.35067749 19.51171093 -0.30664062 17.17382812 C-0.19970228 11.44929722 -0.09789273 5.72469235 0 0 Z " fill="#EF7747" transform="translate(153,60)"/>
<path d="M0 0 C3.625 0.375 3.625 0.375 6 2.25 C8.47083073 5.48108634 8.74130459 6.95025734 8.3125 10.9375 C8.19455078 12.14599609 8.19455078 12.14599609 8.07421875 13.37890625 C7.92597656 14.03761719 7.77773437 14.69632813 7.625 15.375 C6.635 15.87 6.635 15.87 5.625 16.375 C3.12201566 13.43671403 2.15569061 11.19597239 1.625 7.375 C0.305 7.705 -1.015 8.035 -2.375 8.375 C-3.365 6.395 -4.355 4.415 -5.375 2.375 C-3.375 0.375 -3.375 0.375 0 0 Z " fill="#ED5D24" transform="translate(126.375,63.625)"/>
<path d="M0 0 C1.65 0.33 3.3 0.66 5 1 C5 6.61 5 12.22 5 18 C3.35 18.33 1.7 18.66 0 19 C-1.8855253 17.1144747 -1.13246689 14.42231169 -1.13671875 11.91796875 C-1.13285156 11.12003906 -1.12898438 10.32210937 -1.125 9.5 C-1.12886719 8.70207031 -1.13273437 7.90414062 -1.13671875 7.08203125 C-1.12660767 1.12660767 -1.12660767 1.12660767 0 0 Z " fill="#EF6D20" transform="translate(125,89)"/>
<path d="M0 0 C1.65 0.33 3.3 0.66 5 1 C5 6.61 5 12.22 5 18 C3.35 18.33 1.7 18.66 0 19 C-1.8855253 17.1144747 -1.13246689 14.42231169 -1.13671875 11.91796875 C-1.13285156 11.12003906 -1.12898438 10.32210937 -1.125 9.5 C-1.12886719 8.70207031 -1.13273437 7.90414062 -1.13671875 7.08203125 C-1.12660767 1.12660767 -1.12660767 1.12660767 0 0 Z " fill="#F17D1E" transform="translate(96,89)"/>
<path d="M0 0 C1.65 0.33 3.3 0.66 5 1 C5 6.61 5 12.22 5 18 C3.35 18.33 1.7 18.66 0 19 C-1.8855253 17.1144747 -1.13246689 14.42231169 -1.13671875 11.91796875 C-1.13285156 11.12003906 -1.12898438 10.32210937 -1.125 9.5 C-1.12886719 8.70207031 -1.13273437 7.90414062 -1.13671875 7.08203125 C-1.12660767 1.12660767 -1.12660767 1.12660767 0 0 Z " fill="#EF7215" transform="translate(82,64)"/>
<path d="M0 0 C1.65 0.33 3.3 0.66 5 1 C5 6.61 5 12.22 5 18 C3.35 18.33 1.7 18.66 0 19 C-1.8855253 17.1144747 -1.13246689 14.42231169 -1.13671875 11.91796875 C-1.13285156 11.12003906 -1.12898437 10.32210937 -1.125 9.5 C-1.12886719 8.70207031 -1.13273438 7.90414062 -1.13671875 7.08203125 C-1.12660767 1.12660767 -1.12660767 1.12660767 0 0 Z " fill="#EC5018" transform="translate(139,64)"/>
<path d="M0 0 C3.875 1.75 3.875 1.75 5 4 C5.66 2.68 6.32 1.36 7 0 C7.99 0.33 8.98 0.66 10 1 C9.938125 2.0725 9.87625 3.145 9.8125 4.25 C10.00543309 8.10866187 10.39665076 9.28817788 13 12 C12 13 12 13 8.1875 13.4375 C4.55529408 13.38533187 4.20965994 13.21490143 1.5 10.4375 C-0.15000832 6.65623094 -0.32647149 4.08089366 0 0 Z " fill="#EF6C24" transform="translate(133,95)"/>
<path d="M0 0 C2 0 2 0 3.5 1.25 C5 3 5 3 5.8359375 4.875 C7.23914071 7.43655216 8.89337716 8.87831633 11.125 10.75 C11.84945312 11.36359375 12.57390625 11.9771875 13.3203125 12.609375 C13.87460938 13.06828125 14.42890625 13.5271875 15 14 C14.67 14.66 14.34 15.32 14 16 C6.76157407 15.63194444 6.76157407 15.63194444 3.0625 12.5625 C-0.49017155 8.14857474 -0.08922162 5.53174014 0 0 Z " fill="#F7B91B" transform="translate(101,205)"/>
<path d="M0 0 C3.5 0.25 3.5 0.25 5.5 2.25 C5.833728 5.38704316 6.02849028 7.41554166 4.3125 10.125 C1.84492892 11.65659584 0.35480169 11.67822025 -2.5 11.25 C-4.3125 10.125 -4.3125 10.125 -5.5 8.25 C-5.8125 5.1875 -5.8125 5.1875 -5.5 2.25 C-3.5 0.25 -3.5 0.25 0 0 Z " fill="#FEFBF5" transform="translate(112.5,203.75)"/>
<path d="M0 0 C1.7325 0.1546875 1.7325 0.1546875 3.5 0.3125 C5.65502531 3.54503796 5.96856135 4.56400923 5.5 8.3125 C4.3125 10.125 4.3125 10.125 2.5 11.3125 C-0.35480169 11.74072025 -1.84492892 11.71909584 -4.3125 10.1875 C-6.02849028 7.47804166 -5.833728 5.44954316 -5.5 2.3125 C-3.5 0.3125 -3.5 0.3125 0 0 Z " fill="#FEFBF7" transform="translate(136.5,180.6875)"/>
<path d="M0 0 C3.5625 0.1875 3.5625 0.1875 5.5625 2.1875 C5.896228 5.32454316 6.09099028 7.35304166 4.375 10.0625 C1.90742892 11.59409584 0.41730169 11.61572025 -2.4375 11.1875 C-4.3125 10.125 -4.3125 10.125 -5.4375 8.1875 C-4.89124449 0.26679515 -4.89124449 0.26679515 0 0 Z " fill="#FEFBF7" transform="translate(88.4375,180.8125)"/>
<path d="M0 0 C1.875 1.0625 1.875 1.0625 3 3 C2.8125 6.625 2.8125 6.625 2 10 C-0.76250036 11.38125018 -2.94731099 11.19079306 -6 11 C-8 9 -8 9 -8.3125 6.0625 C-8 3 -8 3 -6.8125 1.125 C-4.34492892 -0.40659584 -2.85480169 -0.42822025 0 0 Z " fill="#FEF8F6" transform="translate(189,119)"/>
<path d="M0 0 C1.38125018 2.76250036 1.19079306 4.94731099 1 8 C-1 10 -1 10 -3.9375 10.3125 C-7 10 -7 10 -8.875 8.8125 C-10.40659584 6.34492892 -10.42822025 4.85480169 -10 2 C-7.59587398 -2.24257532 -4.222762 -1.01659085 0 0 Z " fill="#FEFBF6" transform="translate(43,120)"/>
<path d="M0 0 C1.38125018 2.76250036 1.19079306 4.94731099 1 8 C-1 10 -1 10 -3.9375 10.3125 C-7 10 -7 10 -8.875 8.8125 C-10.40659584 6.34492892 -10.42822025 4.85480169 -10 2 C-7.59587398 -2.24257532 -4.222762 -1.01659085 0 0 Z " fill="#FEFBF5" transform="translate(20,96)"/>
<path d="M0 0 C1.8125 1.125 1.8125 1.125 3 3 C3.3125 6.0625 3.3125 6.0625 3 9 C1 11 1 11 -2.5 11.3125 C-4.2325 11.1578125 -4.2325 11.1578125 -6 11 C-8.15502531 7.76746204 -8.46856135 6.74849077 -8 3 C-5.85607122 -0.27231235 -3.76836426 -0.56525464 0 0 Z " fill="#FEFAF6" transform="translate(41,71)"/>
<path d="M0 0 C2.9375 0.8125 2.9375 0.8125 4.9375 2.8125 C4.6875 6.375 4.6875 6.375 3.9375 9.8125 C1.17499964 11.19375018 -1.00981099 11.00329306 -4.0625 10.8125 C-6.0625 8.8125 -6.0625 8.8125 -6.375 5.875 C-6.0625 2.8125 -6.0625 2.8125 -4.9375 0.875 C-3.0625 -0.1875 -3.0625 -0.1875 0 0 Z " fill="#FEF7F6" transform="translate(210.0625,95.1875)"/>
<path d="M0 0 C2.9375 0.8125 2.9375 0.8125 4.9375 2.8125 C4.36057692 9.38942308 4.36057692 9.38942308 2.9375 10.8125 C-0.5 11 -0.5 11 -4.0625 10.8125 C-6.0625 8.8125 -6.0625 8.8125 -6.375 5.875 C-6.0625 2.8125 -6.0625 2.8125 -4.9375 0.875 C-3.0625 -0.1875 -3.0625 -0.1875 0 0 Z " fill="#FEF7F6" transform="translate(187.0625,71.1875)"/>
<path d="M0 0 C1.65 0 3.3 0 5 0 C5 6.27 5 12.54 5 19 C3.35 19 1.7 19 0 19 C0 12.73 0 6.46 0 0 Z " fill="#F18014" transform="translate(110,114)"/>
<path d="M0 0 C1.65 0 3.3 0 5 0 C5 6.27 5 12.54 5 19 C3.35 19 1.7 19 0 19 C0 12.73 0 6.46 0 0 Z " fill="#EE6416" transform="translate(110,64)"/>
<path d="M0 0 C0.61875 0.804375 1.2375 1.60875 1.875 2.4375 C3.74164041 5.03874519 3.74164041 5.03874519 6 6 C6 4.35 6 2.7 6 1 C7.32 1 8.64 1 10 1 C10 4.66666667 10 8.33333333 10 12 C6.6875 12.3125 6.6875 12.3125 3 12 C0.2292932 9.05053792 0.01151394 7.23411674 -0.1875 3.1875 C-0.125625 2.135625 -0.06375 1.08375 0 0 Z " fill="#F39425" transform="translate(90,120)"/>
<path d="M0 0 C1.9375 0.75 1.9375 0.75 4 2 C5.23843794 4.95319818 5.04187157 5.87438528 4 9 C3.85426942 10.47965926 3.75336732 11.96403843 3.68359375 13.44921875 C3.64169922 14.29677734 3.59980469 15.14433594 3.55664062 16.01757812 C3.51732422 16.89865234 3.47800781 17.77972656 3.4375 18.6875 C3.39431641 19.58017578 3.35113281 20.47285156 3.30664062 21.39257812 C3.20064647 23.59490108 3.09857949 25.79733473 3 28 C2.67 28 2.34 28 2 28 C1.96261719 27.01257813 1.92523438 26.02515625 1.88671875 25.0078125 C1.82097656 23.72648437 1.75523438 22.44515625 1.6875 21.125 C1.62949219 19.84882812 1.57148437 18.57265625 1.51171875 17.2578125 C1.34285156 16.18273437 1.17398438 15.10765625 1 14 C0.01 13.34 -0.98 12.68 -2 12 C-2.42915004 7.45100954 -1.99170782 4.10789738 0 0 Z " fill="#EE621A" transform="translate(78,26)"/>
<path d="M0 0 C2.75 -0.3125 2.75 -0.3125 6 0 C8.56801099 2.16253557 9.85355976 3.7221908 10.2421875 7.11328125 C10.24916401 9.07716839 10.13284079 11.04059838 10 13 C9.01 12.01 8.02 11.02 7 10 C6.01 10.495 6.01 10.495 5 11 C4.67 9.35 4.34 7.7 4 6 C3.01 6 2.02 6 1 6 C0.67 4.02 0.34 2.04 0 0 Z " fill="#EF6D18" transform="translate(110,89)"/>
<path d="M0 0 C0.99 0.33 1.98 0.66 3 1 C2.91621094 1.62648438 2.83242187 2.25296875 2.74609375 2.8984375 C2.64425781 3.71570313 2.54242188 4.53296875 2.4375 5.375 C2.33308594 6.18710938 2.22867188 6.99921875 2.12109375 7.8359375 C1.81762672 10.04899186 1.81762672 10.04899186 3 12 C0.69 12 -1.62 12 -4 12 C-5.125 10.25 -5.125 10.25 -6 8 C-5.125 5.75 -5.125 5.75 -4 4 C-3.01 4.66 -2.02 5.32 -1 6 C-1.020625 5.195625 -1.04125 4.39125 -1.0625 3.5625 C-1 1 -1 1 0 0 Z " fill="#F07725" transform="translate(97,70)"/>
<path d="M0 0 C0.99 0.33 1.98 0.66 3 1 C3 2.98 3 4.96 3 7 C2.01 7 1.02 7 0 7 C-1 6 -1 6 -1.125 3.5 C-1 1 -1 1 0 0 Z " fill="#FDEFE2" transform="translate(97,120)"/>
<path d="M0 0 C0.99 0.33 1.98 0.66 3 1 C3 2.65 3 4.3 3 6 C1.68 6.33 0.36 6.66 -1 7 C-1.04254356 5.00045254 -1.04080783 2.99958364 -1 1 C-0.67 0.67 -0.34 0.34 0 0 Z " fill="#FCECE4" transform="translate(126,120)"/>
<path d="M0 0 C0.99 0.33 1.98 0.66 3 1 C3 2.65 3 4.3 3 6 C1.68 6 0.36 6 -1 6 C-1.042721 4.33388095 -1.04063832 2.66617115 -1 1 C-0.67 0.67 -0.34 0.34 0 0 Z " fill="#FDF1EC" transform="translate(140,95)"/>
<path d="M0 0 C0.99 0.33 1.98 0.66 3 1 C3 2.65 3 4.3 3 6 C1.68 6 0.36 6 -1 6 C-1.042721 4.33388095 -1.04063832 2.66617115 -1 1 C-0.67 0.67 -0.34 0.34 0 0 Z " fill="#FDF3EC" transform="translate(83,95)"/>
<path d="M0 0 C0.99 0.33 1.98 0.66 3 1 C3 2.65 3 4.3 3 6 C1.68 6 0.36 6 -1 6 C-1.042721 4.33388095 -1.04063832 2.66617115 -1 1 C-0.67 0.67 -0.34 0.34 0 0 Z " fill="#FCEDE9" transform="translate(126,70)"/>
<path d="M0 0 C0.99 0.33 1.98 0.66 3 1 C3 2.65 3 4.3 3 6 C1.68 6 0.36 6 -1 6 C-1.042721 4.33388095 -1.04063832 2.66617115 -1 1 C-0.67 0.67 -0.34 0.34 0 0 Z " fill="#FDEFE9" transform="translate(97,70)"/>
<path d="M0 0 C0.99 0 1.98 0 3 0 C3 2.31 3 4.62 3 7 C2.01 7 1.02 7 0 7 C0 4.69 0 2.38 0 0 Z " fill="#FDF6F2" transform="translate(111,95)"/>
</svg>
